<svg xmlns="http://www.w3.org/2000/svg" viewBox="0 0 1120 228" role="img" aria-label="Token Stats data flow">
  <rect width="1120" height="228" rx="16" fill="#0a0a0b"/>
  <g font-family="Inter, Segoe UI, Helvetica, Arial, sans-serif" text-anchor="middle">
    <!-- cards -->
    <g>
      <rect x="24" y="36" width="176" height="156" rx="14" fill="#131316" stroke="#232329"/>
      <rect x="86" y="58" width="14" height="48" rx="4" fill="#34d399"/>
      <rect x="104" y="72" width="14" height="34" rx="4" fill="#34d399"/>
      <rect x="122" y="64" width="14" height="42" rx="4" fill="#6ee7b7"/>
      <text x="112" y="140" fill="#e4e4e7" font-size="16" font-weight="600">本机日志</text>
      <text x="112" y="162" fill="#6b6b76" font-size="12">Local logs</text>
    </g>
    <path d="M208 114h40" stroke="#34d399" stroke-width="2"/>
    <path d="M240 108l8 6-8 6" fill="none" stroke="#34d399" stroke-width="2"/>
    <g>
      <rect x="256" y="36" width="176" height="156" rx="14" fill="#131316" stroke="#232329"/>
      <circle cx="344" cy="84" r="22" fill="none" stroke="#34d399" stroke-width="4"/>
      <path d="M360 100l14 14" stroke="#34d399" stroke-width="4" stroke-linecap="round"/>
      <text x="344" y="140" fill="#e4e4e7" font-size="16" font-weight="600">扫描</text>
      <text x="344" y="162" fill="#6b6b76" font-size="12">Scan</text>
    </g>
    <path d="M440 114h40" stroke="#34d399" stroke-width="2"/>
    <path d="M472 108l8 6-8 6" fill="none" stroke="#34d399" stroke-width="2"/>
    <g>
      <rect x="488" y="36" width="176" height="156" rx="14" fill="#131316" stroke="#232329"/>
      <rect x="518" y="70" width="116" height="8" rx="4" fill="#35b586"/>
      <rect x="518" y="86" width="86" height="8" rx="4" fill="#9385d9"/>
      <rect x="518" y="102" width="64" height="8" rx="4" fill="#5ea3c7"/>
      <text x="576" y="140" fill="#e4e4e7" font-size="16" font-weight="600">桌面统计</text>
      <text x="576" y="162" fill="#6b6b76" font-size="12">Desktop</text>
    </g>
    <path d="M672 114h40" stroke="#34d399" stroke-width="2"/>
    <path d="M704 108l8 6-8 6" fill="none" stroke="#34d399" stroke-width="2"/>
    <g>
      <rect x="720" y="36" width="176" height="156" rx="14" fill="#131316" stroke="#232329"/>
      <ellipse cx="808" cy="78" rx="28" ry="14" fill="none" stroke="#34d399" stroke-width="3"/>
      <path d="M780 78c0 12 12 22 28 22s28-10 28-22" fill="none" stroke="#34d399" stroke-width="3"/>
      <path d="M780 78c0 6 12 10 28 10s28-4 28-10" fill="none" stroke="#34d399" stroke-width="3"/>
      <text x="808" y="140" fill="#e4e4e7" font-size="16" font-weight="600">可选同步</text>
      <text x="808" y="162" fill="#6b6b76" font-size="12">Optional sync</text>
    </g>
    <path d="M904 114h40" stroke="#34d399" stroke-width="2"/>
    <path d="M936 108l8 6-8 6" fill="none" stroke="#34d399" stroke-width="2"/>
    <g>
      <rect x="920" y="36" width="176" height="156" rx="14" fill="#131316" stroke="#232329"/>
      <rect x="978" y="58" width="60" height="64" rx="8" fill="none" stroke="#34d399" stroke-width="3"/>
      <circle cx="1008" cy="112" r="3" fill="#34d399"/>
      <text x="1008" y="140" fill="#e4e4e7" font-size="16" font-weight="600">只读查看</text>
      <text x="1008" y="162" fill="#6b6b76" font-size="12">Phone read-only</text>
    </g>
  </g>
</svg>
